<svg width="30" height="30" viewBox="0 0 30 30" fill="none" xmlns="http://www.w3.org/2000/svg">
<path d="M14.51 15.5117C10.1529 15.5117 6.53158 11.9926 6.53158 7.8286C6.53158 3.52054 10.1529 0 14.5115 0C19.0181 0 22.4899 3.51904 22.4899 7.8286C22.4821 9.8732 21.64 11.8312 20.1485 13.2721C18.6571 14.7131 16.6384 15.5192 14.5362 15.5132L14.51 15.5117ZM14.51 4.52556C12.6654 4.52556 11.2618 6.03307 11.2618 7.8301C11.2618 9.62412 12.6654 10.9891 14.5115 10.9891C16.4317 10.9891 17.7611 9.62412 17.7611 7.8301C17.7627 6.03157 16.4317 4.52556 14.51 4.52556ZM17.6871 21.9048L22.1953 26.1423C23.0821 27.0738 23.0821 28.4389 22.1953 29.3014C21.236 30.2329 19.7569 30.2329 19.0181 29.3014L14.5115 24.9918L10.1529 29.3014C9.71028 29.7319 9.11803 29.9464 8.45176 29.9464C7.93508 29.9464 7.34438 29.7304 6.82616 29.3014C5.93933 28.4389 5.93933 27.0738 6.82616 26.1408L11.4068 21.9033C9.75259 21.4268 8.16571 20.7522 6.68272 19.8947C5.5738 19.3202 5.35325 17.8847 5.94396 16.8062C6.68273 15.7292 8.0122 15.4427 9.19515 16.1612C10.797 17.1119 12.6373 17.6149 14.5138 17.6149C16.3904 17.6149 18.2306 17.1119 19.8325 16.1612C21.0154 15.4427 22.4174 15.7292 23.0821 16.8062C23.7484 17.8847 23.4507 19.3187 22.4158 19.8947C21.0139 20.7573 19.3883 21.4038 17.6887 21.9063L17.6871 21.9048Z" fill="#F7A600"/>
</svg>
