<svg width="32" height="30" viewBox="0 0 32 30" fill="none" xmlns="http://www.w3.org/2000/svg">
<g clip-path="url(#clip0)">
<path d="M20.91 0H11.087C2.12305 0 -0.00195312 1.99219 -0.00195312 10.3959V19.605C-0.00195312 28.0088 2.12305 30.0009 11.087 30.0009H20.91C29.874 30.0009 31.999 28.0088 31.999 19.605V10.3959C31.999 1.99219 29.853 0 20.91 0ZM25.832 21.4012H23.509C22.629 21.4012 22.358 20.7469 20.775 19.2431C19.4 17.9934 18.791 17.8275 18.452 17.8275C17.973 17.8275 17.837 17.9541 17.837 18.57V20.5378C17.837 21.0656 17.66 21.3825 16.17 21.3825C13.706 21.3825 10.972 19.9856 9.05505 17.3831C6.16405 13.5694 5.37305 10.7128 5.37305 10.1222C5.37305 9.80437 5.50805 9.50719 6.15905 9.50719H8.48705C9.07605 9.50719 9.30005 9.76125 9.52905 10.3519C10.68 13.4672 12.597 16.1962 13.388 16.1962C13.68 16.1962 13.815 16.0697 13.815 15.3713V12.1537C13.726 10.6697 12.893 10.5422 12.893 10.0153C12.893 9.76125 13.117 9.50719 13.476 9.50719H17.137C17.632 9.50719 17.814 9.76125 17.814 10.3078V14.6484C17.814 15.1172 18.038 15.2831 18.173 15.2831C18.465 15.2831 18.715 15.1172 19.256 14.6091C20.928 12.8512 22.126 10.1409 22.126 10.1409C22.282 9.82313 22.553 9.52594 23.142 9.52594H25.47C26.168 9.52594 26.324 9.8625 26.168 10.3313C25.876 11.6006 23.027 15.3703 23.027 15.3703C22.782 15.7509 22.688 15.9169 23.027 16.3416C23.277 16.6594 24.09 17.3184 24.631 17.9091C25.626 18.9684 26.391 19.8572 26.595 20.4722C26.824 21.0825 26.486 21.4003 25.829 21.4003L25.832 21.4012Z" fill="#F7A600"/>
</g>
<defs>
<clipPath id="clip0">
<rect width="32" height="30" fill="white"/>
</clipPath>
</defs>
</svg>
